<?xml version="1.0" encoding="UTF-8" standalone="no"?>
<svg width="53px" height="50px" viewBox="0 0 53 50" version="1.1" xmlns="http://www.w3.org/2000/svg" xmlns:xlink="http://www.w3.org/1999/xlink">
    <!-- Generator: Sketch 45 (43475) - http://www.bohemiancoding.com/sketch -->
    <title>Group 4</title>
    <desc>Created with Sketch.</desc>
    <defs></defs>
    <g id="Design" stroke="none" stroke-width="1" fill="none" fill-rule="evenodd">
        <g id="Tablet" transform="translate(-35.000000, -27.000000)" fill-rule="nonzero">
            <g id="Group-4" transform="translate(31.000000, 24.000000)">
                <g id="Group-3">
                    <path d="M9,12.4607412 L15.0587356,17.5617316 C15.0587356,17.5617316 15.4123027,14.4752497 29.960302,10.4648779 C44.5083013,6.45450613 57,6 57,6 L51.1150933,36.9764424 L46.1912728,24.1714688 L29.960302,22.4427133 L9,22.4427133 L9,12.4607412 Z" id="Rectangle-9" fill="#E9EA8C"></path>
                    <path d="M9.00676371,20.8449199 L8,41.1087171 L25.9599029,52.1355167 C25.9599029,52.1355167 30.715997,51.2026983 33.84711,50.5885893 C36.9782231,49.9744803 40.1093361,49.3603714 40.1093361,49.3603714 L46.433145,24.5197264 L28.3447191,20 L9.00676371,20.8449199 Z" id="Path-3" fill="#2DA7E9"></path>
                    <polygon id="Path-4" fill="#FFFFFF" points="32 40.4072323 32 28 45.4592169 28 43.7931777 40.4072321"></polygon>
                    <polygon id="Path-4-Copy" fill="#FFFFFF" transform="translate(17.261601, 31.103527) rotate(-177.000000) translate(-17.261601, -31.103527) " points="5.48104674 35.5767442 5.48104674 21.6035272 29.0421562 21.6035272 26.0673049 40.6035272"></polygon>
                    <path d="M20.5323936,3.97351694 C28.4387658,3.04306105 35.2535596,1.69879082 39.0053741,14.1298816 C42.7571885,26.5609723 42.9897343,44.0353028 40.3397938,37.198919 C37.6898533,30.3625351 29.8357883,18.9218003 29.8357883,18.9218003 L3.01141271,12.2454983 C3.01141271,12.2454983 4.53006837,10.5716216 10.1343997,7.92571243" id="Path-6" fill="#BF5656" transform="translate(22.560380, 21.070261) scale(-1, 1) rotate(11.000000) translate(-22.560380, -21.070261) "></path>
                    <path d="M13.3367134,17.5777573 C17.8583508,12.9228897 19.981094,5.06149479 19.981094,5.06149479 C19.981094,5.06149479 18.4491362,16.1118735 13.336713,19.2607846 C8.22428979,22.4096957 5.15549815,20.3239274 5.15549815,20.3239274 C5.15549815,20.3239274 8.815076,22.232625 13.3367134,17.5777573 Z" id="Path-7" fill-opacity="0.819999993" fill="#D8D8D8" transform="translate(12.568296, 13.031362) rotate(171.000000) translate(-12.568296, -13.031362) "></path>
                </g>
            </g>
        </g>
    </g>
</svg>