<?xml version="1.0" encoding="UTF-8" standalone="no"?>
<svg width="77px" height="77px" viewBox="0 0 77 77" version="1.1" xmlns="http://www.w3.org/2000/svg" xmlns:xlink="http://www.w3.org/1999/xlink">
    <!-- Generator: Sketch 45.2 (43514) - http://www.bohemiancoding.com/sketch -->
    <title>Shape</title>
    <desc>Created with Sketch.</desc>
    <defs></defs>
    <g id="Design" stroke="none" stroke-width="1" fill="none" fill-rule="evenodd">
        <g id="Desktop-HD-Copy" transform="translate(-664.000000, -2488.000000)" fill-rule="nonzero" fill="#3498DB">
            <g id="ic_tag_faces_black_24px" transform="translate(664.000000, 2480.000000)">
                <path d="M38.4491457,8 C17.2039721,8 0,25.2424597 0,46.4876333 C0,67.7328069 17.2039721,84.9752667 38.4491457,84.9752667 C59.7328069,84.9752667 76.9752667,67.7328069 76.9752667,46.4876333 C76.9752667,25.2424597 59.7328069,8 38.4491457,8 Z M38.4876333,77.27774 C21.4760994,77.27774 7.69752667,63.4991673 7.69752667,46.4876333 C7.69752667,29.4760994 21.4760994,15.6975267 38.4876333,15.6975267 C55.4991673,15.6975267 69.27774,29.4760994 69.27774,46.4876333 C69.27774,63.4991673 55.4991673,77.27774 38.4876333,77.27774 Z M51.958305,42.63887 C55.1527786,42.63887 57.73145,40.0601986 57.73145,36.865725 C57.73145,33.6712514 55.1527786,31.09258 51.958305,31.09258 C48.7638314,31.09258 46.18516,33.6712514 46.18516,36.865725 C46.18516,40.0601986 48.7638314,42.63887 51.958305,42.63887 Z M25.0169617,42.63887 C28.2114352,42.63887 30.7901067,40.0601986 30.7901067,36.865725 C30.7901067,33.6712514 28.2114352,31.09258 25.0169617,31.09258 C21.8224881,31.09258 19.2438167,33.6712514 19.2438167,36.865725 C19.2438167,40.0601986 21.8224881,42.63887 25.0169617,42.63887 Z M38.4876333,67.6558317 C47.4552519,67.6558317 55.0758033,62.0366372 58.154814,54.18516 L18.8204527,54.18516 C21.8994634,62.0366372 29.5200148,67.6558317 38.4876333,67.6558317 Z" id="Shape"></path>
            </g>
        </g>
    </g>
</svg>