<svg width="77" height="77" viewBox="0 0 77 77" xmlns="http://www.w3.org/2000/svg"><title>Shape</title><path d="M38.45 0C17.203 0 0 17.242 0 38.488c0 21.245 17.204 38.487 38.45 38.487 21.283 0 38.525-17.242 38.525-38.487C76.975 17.242 59.733 0 38.45 0zm.038 69.278c-17.012 0-30.79-13.779-30.79-30.79 0-17.012 13.778-30.79 30.79-30.79 17.011 0 30.79 13.778 30.79 30.79 0 17.011-13.779 30.79-30.79 30.79zm13.47-34.64a5.765 5.765 0 0 0 5.773-5.772 5.765 5.765 0 0 0-5.773-5.773 5.765 5.765 0 0 0-5.773 5.773 5.765 5.765 0 0 0 5.773 5.773zm-26.941 0a5.765 5.765 0 0 0 5.773-5.772 5.765 5.765 0 0 0-5.773-5.773 5.765 5.765 0 0 0-5.773 5.773 5.765 5.765 0 0 0 5.773 5.773zm13.47 25.018c8.968 0 16.589-5.62 19.668-13.47H18.82c3.08 7.85 10.7 13.47 19.668 13.47z" fill="#3498DB"/></svg>