<svg width="53" height="50" viewBox="0 0 53 50" xmlns="http://www.w3.org/2000/svg"><title>Group 4</title><g fill="none"><path d="M5 9.46l6.059 5.102s.353-3.087 14.901-7.097S53 3 53 3l-5.885 30.976-4.924-12.805-16.23-1.728H5V9.46z" fill="#E9EA8C"/><path d="M5.007 17.845L4 38.109l17.96 11.027 7.887-1.547 6.262-1.229 6.324-24.84L24.345 17l-19.338.845z" fill="#2DA7E9"/><path fill="#FFF" d="M28 37.407V25h13.46l-1.667 12.407zm-2.74-13.154l-.731 13.954L1 36.974l3.965-18.818z"/><path d="M17.289.9c-7.939.596-14.885.577-16.196 13.495-1.31 12.919 1.795 30.116 3.092 22.9C5.482 30.08 11.01 17.35 11.01 17.35L36.066 5.678s-1.81-1.354-7.816-2.882" fill="#BF5656"/><path d="M7.098 5.661C3.36 10.966 2.494 19.063 2.494 19.063S2.278 7.909 6.834 3.999c4.558-3.91 7.915-2.33 7.915-2.33S10.836.356 7.099 5.661z" fill-opacity=".82" fill="#D8D8D8"/></g></svg>